<!DOCTYPE svg PUBLIC "-//W3C//DTD SVG 1.1//EN" "http://www.w3.org/Graphics/SVG/1.1/DTD/svg11.dtd">
<!-- Uploaded to: SVG Repo, www.svgrepo.com, Transformed by: SVG Repo Mixer Tools -->
<svg width="256px" height="256px" viewBox="0 0 2000 2000" enable-background="new 0 0 2000 2000" id="Layer_1" version="1.1" xml:space="preserve" xmlns="http://www.w3.org/2000/svg" xmlns:xlink="http://www.w3.org/1999/xlink" fill="#000000">
<g id="SVGRepo_bgCarrier" stroke-width="0"/>
<g id="SVGRepo_tracerCarrier" stroke-linecap="round" stroke-linejoin="round"/>
<g id="SVGRepo_iconCarrier"> <g> <path d="M1023.2,645.9c-175.2,0-324.1-46.9-354-57L541.6,933c36,12.7,236,79.3,481.4,79.3 c159.2,0,305.6-27.7,435.2-82.3l-144.5-337.2C1229.2,628.1,1131.5,645.9,1023.2,645.9z M827,773.5c-0.3,1.6-1.9,2.6-3.4,2.3 l-35.8-7.3c-1.4-0.3-2.4-1.6-2.3-3.1c0.7-8.6-0.8-15.3-4.3-19.9c-3.6-4.6-10.1-8.2-19.3-10.5c-9.6-2.4-17.7-2.3-23.9,0.2 c-3.5,1.4-5.7,3.9-6.6,7.5c-0.8,3.3-0.1,6.4,2.1,9.5c2.2,3.1,9,8.8,28.6,18.9c16.3,8.4,28.3,16,35.7,22.6 c7.5,6.7,12.8,14.8,15.8,23.9c2.9,9.2,3,19.7,0.1,31.3c-2.6,10.5-8.1,19.8-16.2,27.5c-8.2,7.8-18.3,12.6-30.1,14.4 c-3.6,0.6-7.5,0.8-11.5,0.8c-8.8,0-18.7-1.3-29.3-4c-22.8-5.7-39.2-15.5-48.9-29.3c-9.7-13.7-13.3-31.3-10.6-52.1 c0.1-0.8,0.5-1.5,1.1-2c0.6-0.5,1.4-0.7,2.2-0.6l35.3,5.2c1.5,0.2,2.6,1.6,2.5,3.1c-0.8,11.3,1.2,20.3,5.7,26.7 c4.5,6.4,11.9,10.9,21.9,13.4c10.6,2.7,19.3,2.5,25.6-0.6c6.2-3,9.9-7.2,11.3-12.8c0.9-3.5,0.6-6.6-0.8-9.5c-1.5-3-4.8-6.3-9.8-9.6 c-3.7-2.4-12.5-7.3-26.2-14.6c-18.4-9.8-30.4-19-36.7-28.2c-8.8-13-11.4-27-7.8-41.6c2.4-9.5,7.3-17.7,14.7-24.6 c7.4-6.9,16.7-11.3,27.8-13c10.9-1.7,23.4-0.9,37.2,2.6c22.6,5.6,38.7,15.1,47.7,28C827.8,741.2,830.6,756.5,827,773.5z M995.2,773.5c-0.1,0.8-0.5,1.5-1.1,2c-0.6,0.5-1.4,0.7-2.1,0.6L898,765.2l-3.9,34l87.2,10c0.8,0.1,1.5,0.5,2,1.1 c0.5,0.6,0.7,1.4,0.6,2.1l-3.5,30.2c-0.2,1.6-1.7,2.7-3.2,2.6l-87.2-10l-5,43l97.3,11.2c1.6,0.2,2.8,1.6,2.6,3.2l-3.5,30.2 c-0.1,0.8-0.5,1.5-1.1,2c-0.5,0.4-1.2,0.6-1.8,0.6c-0.1,0-0.2,0-0.3,0l-136.5-15.7c-0.8-0.1-1.5-0.5-2-1.1 c-0.5-0.6-0.7-1.4-0.6-2.1l20.7-179.4c0.2-1.6,1.6-2.7,3.2-2.6l133.1,15.3c1.6,0.2,2.8,1.6,2.6,3.2L995.2,773.5z M1163,922.8 l-137.3,4.7c0,0-0.1,0-0.1,0c-0.7,0-1.5-0.3-2-0.8c-0.6-0.5-0.9-1.3-0.9-2l-6.1-180.5c0-0.8,0.3-1.5,0.8-2.1c0.5-0.6,1.3-0.9,2-0.9 l133.9-4.5c1.6-0.1,3,1.2,3,2.8l1,30.5c0,0.8-0.3,1.5-0.8,2.1c-0.5,0.6-1.3,0.9-2,0.9l-94.5,3.2l1.2,34.2l87.7-3 c0.8,0,1.5,0.3,2.1,0.8c0.6,0.5,0.9,1.3,0.9,2l1,30.4c0.1,1.6-1.2,3-2.8,3l-87.7,3l1.5,43.3l97.9-3.3c0.8,0,1.5,0.3,2.1,0.8 c0.6,0.5,0.9,1.3,0.9,2l1,30.4C1165.9,921.4,1164.6,922.8,1163,922.8z M1329,751.1c6.6,10.6,12,24.4,15.9,41.1 c3.5,14.7,4.6,28,3.5,39.7c-1.4,14.2-5.5,26.6-12,36.8c-5,7.8-12.6,14.8-22.6,20.8c-7.5,4.5-18,8.3-31.4,11.5l-66.8,15.7 c-0.2,0.1-0.5,0.1-0.7,0.1c-1.3,0-2.5-0.9-2.8-2.2l-41.5-175.8c-0.4-1.6,0.6-3.1,2.2-3.5l64.9-15.3c14.9-3.5,26.7-5,35.1-4.6 c11.5,0.6,22.2,4.1,31.8,10.4C1314.1,731.9,1322.3,740.5,1329,751.1z" fill="#87562E"/> <path d="M1278.4,757.4c-4.6-2.7-10-4-16-4l-0.8,0c-5,0-14.7,1.8-28.9,5.1l-13.1,3.1l26.1,110.8l23.7-5.6 c9.7-2.3,16.5-4.5,20.4-6.5c5-2.6,8.9-5.9,11.6-9.8c2.7-3.9,4.3-9.8,4.8-17.7c0.5-8.1-0.8-19-3.9-32.2 c-3.1-13.2-6.7-23.2-10.6-29.6C1287.7,764.8,1283.3,760.2,1278.4,757.4z" fill="#87562E"/> <g> <path d="M1324,754.2c-6.2-9.9-13.8-17.9-22.6-23.6c-8.7-5.7-18.4-8.9-28.9-9.5c-7.9-0.4-19.1,1.1-33.4,4.5 l-62,14.6l40.1,170.1l64-15.1c12.8-3,22.8-6.6,29.7-10.8c9.2-5.5,16.2-11.9,20.7-19c6-9.4,9.7-20.9,11.1-34.2 c1.1-11,0-23.7-3.4-37.7C1335.4,777.5,1330.3,764.2,1324,754.2z M1311.9,833.2c-0.6,8.9-2.5,15.9-5.8,20.6 c-3.2,4.7-7.8,8.6-13.7,11.6c-4.4,2.3-11.5,4.6-21.7,7l-26.5,6.2c-0.2,0.1-0.5,0.1-0.7,0.1c-1.3,0-2.5-0.9-2.8-2.3l-27.5-116.4 c-0.2-0.8-0.1-1.5,0.4-2.2c0.4-0.7,1.1-1.1,1.8-1.3l15.9-3.8c14.9-3.5,24.7-5.2,30.2-5.3l0.9,0c7.1,0,13.5,1.6,19,4.8 c5.7,3.3,10.8,8.6,15.1,15.7c4.3,7,8,17.3,11.3,31.3C1311.1,813.1,1312.4,824.5,1311.9,833.2z" fill="#FFA452"/> <path d="M769.4,705.8c-13-3.2-24.7-4.1-34.8-2.5c-9.9,1.6-18.3,5.5-24.8,11.6c-6.5,6.1-10.9,13.4-13,21.7 c-3.3,13.1-1,25.2,6.9,37c5.6,8.3,17.3,17.2,34.6,26.4c13.8,7.3,22.8,12.3,26.6,14.8c6,4,9.9,7.9,11.9,11.9 c2,4.1,2.4,8.7,1.2,13.5c-1.8,7.3-6.7,12.9-14.4,16.7c-7.6,3.7-17.5,4-29.5,1c-11.4-2.8-19.9-8.1-25.3-15.7 c-5-7-7.3-16.3-6.9-27.8l-29.7-4.4c-1.8,18,1.6,33.2,9.9,45.1c8.9,12.6,24.2,21.6,45.5,27c14.8,3.7,27.8,4.7,38.6,3.1 c10.6-1.6,19.7-5.9,27-12.9c7.3-7,12.2-15.3,14.6-24.7c2.6-10.5,2.6-19.9,0-28.1c-2.6-8.2-7.3-15.3-14.1-21.4 c-7-6.2-18.6-13.5-34.5-21.7c-16.8-8.7-26.8-15.4-30.6-20.7c-3.3-4.6-4.3-9.4-3.1-14.4c1.4-5.5,4.8-9.3,10.1-11.5 c7.4-3,16.7-3.1,27.5-0.4c10.6,2.6,18.1,6.9,22.5,12.6c4,5.3,5.9,12.4,5.6,21.3l30.4,6.2c2.4-14.2-0.3-26.9-8-37.9 C805.6,719.8,790.6,711.1,769.4,705.8z" fill="#FFA452"/> <path d="M845.3,904.3l130.7,15l2.8-24.4l-97.3-11.2c-1.6-0.2-2.8-1.6-2.6-3.2l5.6-48.8c0.1-0.8,0.5-1.5,1.1-2 c0.6-0.5,1.4-0.7,2.1-0.6l87.2,10l2.8-24.4l-87.2-10c-1.6-0.2-2.7-1.6-2.6-3.2l4.6-39.8c0.1-0.8,0.5-1.5,1.1-2 c0.6-0.5,1.4-0.7,2.1-0.6l93.9,10.8l2.8-24.6l-127.3-14.6L845.3,904.3z" fill="#FFA452"/> <path d="M1061.1,895.8c-1.6,0-3-1.2-3-2.8l-1.7-49.1c-0.1-1.6,1.2-3,2.8-3l87.7-3l-0.8-24.6l-87.7,3 c-0.8,0-1.5-0.3-2.1-0.8c-0.6-0.5-0.9-1.3-0.9-2l-1.4-40c0-0.8,0.3-1.5,0.8-2.1c0.5-0.6,1.3-0.9,2-0.9l94.5-3.2l-0.8-24.7 l-128,4.3l5.9,174.7l131.5-4.5l-0.8-24.6L1061.1,895.8z" fill="#FFA452"/> <path d="M1357.2,1690c2.9-0.9,5.7-1.9,8.5-2.9c6.2-2.1,12.4-4.2,18.4-6.4c3-1.1,5.8-2.3,8.7-3.4 c5.6-2.2,11.2-4.4,16.5-6.7c3-1.3,5.8-2.6,8.7-4c5-2.2,10-4.5,14.7-6.8c3.1-1.6,6-3.2,9.1-4.8c4.1-2.2,8.4-4.3,12.3-6.6 c3.6-2.1,7-4.3,10.4-6.5c2.9-1.9,6.1-3.7,8.9-5.6c6.1-4.1,11.8-8.3,17.2-12.7c4.5-3.7,9-7.7,13.3-11.8c0.9-0.8,1.8-1.7,2.6-2.6 c32.7-32.4,59.7-78.5,80.1-137.6c0.1-0.2,0.3-0.3,0.3-0.5c8.1-23.6,15.2-49.1,21.2-76.8c20.6-94.9,28.3-213.9,22-344.1 c-7.8-162.7-36.2-331.4-76.1-466.4c-0.1-0.3-0.4-0.5-0.5-0.8c-9.9-33.5-20.2-64.2-30.9-91.9c-0.2-0.6-0.5-1.2-0.7-1.9 c-3.2-8.2-6.4-16.1-9.7-23.9c-2.6-6.1-5.2-12.1-7.9-18c-1.2-2.7-2.5-5.3-3.7-7.9c-3.8-8-7.6-15.9-11.5-23.3 c-0.1-0.2-0.3-0.5-0.5-0.8c-0.1-0.2-0.3-0.3-0.4-0.5c-0.1-0.1-0.2-0.2-0.3-0.3c-3.5-3.5-15.1-10.4-53.4-17.7 c-0.4-0.1-0.8-0.1-1.2-0.2c-3-0.6-6.2-1.1-9.6-1.7c-0.4-0.1-0.8-0.1-1.2-0.2c-3.4-0.6-6.9-1.1-10.7-1.7c0,0,0,0-0.1,0 c-21.1-3.2-47.8-6.4-81.8-9.3c-88.5-7.6-205.6-11.8-329.9-11.8c-124.3,0-241.4,4.2-329.9,11.8c-34,2.9-60.7,6.1-81.8,9.3 c0,0,0,0-0.1,0c-3.8,0.6-7.3,1.1-10.7,1.7c-0.4,0.1-0.8,0.1-1.2,0.2c-3.4,0.6-6.6,1.1-9.6,1.7c-0.4,0.1-0.8,0.1-1.2,0.2 c-38.3,7.3-49.9,14.2-53.4,17.7c-0.1,0.1-0.2,0.2-0.3,0.3c-0.2,0.2-0.3,0.3-0.4,0.5c-0.2,0.3-0.4,0.6-0.5,0.8 c-3.9,7.4-7.7,15.2-11.5,23.3c-1.2,2.6-2.5,5.3-3.7,8c-2.6,5.8-5.3,11.8-7.8,17.9c-3.3,7.7-6.5,15.6-9.7,23.9 c-0.2,0.6-0.5,1.2-0.7,1.9c-10.7,27.7-21,58.4-30.9,91.9c-0.1,0.3-0.4,0.5-0.5,0.8c-39.9,135-68.3,303.7-76.1,466.4 c-6.2,130.2,1.4,249.1,22,344.1c6,27.6,13.1,53.2,21.2,76.8c0.1,0.2,0.3,0.3,0.4,0.5c20.4,59.1,47.3,105.2,80.1,137.6 c0.9,0.9,1.8,1.7,2.6,2.6c4.3,4.2,8.8,8.1,13.3,11.8c5.4,4.3,11.1,8.5,17.2,12.7c2.8,1.9,5.9,3.7,8.9,5.6 c3.4,2.2,6.8,4.4,10.4,6.5c3.9,2.3,8.2,4.4,12.3,6.6c3,1.6,5.9,3.2,9,4.8c4.7,2.3,9.7,4.6,14.7,6.8c2.9,1.3,5.6,2.6,8.6,3.9 c5.4,2.3,11,4.5,16.6,6.7c2.9,1.1,5.6,2.3,8.6,3.4c6,2.3,12.4,4.4,18.7,6.5c2.7,0.9,5.4,1.9,8.2,2.8c7,2.3,14.2,4.4,21.5,6.5 c2.3,0.7,4.5,1.4,6.8,2c8.5,2.4,17.2,4.6,26.1,6.8c86.9,21.5,191.2,33.5,302.9,33.5c112,0,216.5-12.1,303.5-33.7 c8.6-2.1,17-4.3,25.2-6.6c2.5-0.7,4.9-1.5,7.4-2.2C1343.3,1694.3,1350.4,1692.2,1357.2,1690z M1023,1024c-267.6,0-482-78.7-491-82 c-3-1.1-4.6-4.5-3.4-7.5l131.6-354.9c1.1-3,4.5-4.6,7.5-3.5c1.6,0.6,162.3,58.1,355.5,58.1c109,0,207-18.3,291.3-54.4 c1.4-0.6,3-0.6,4.5-0.1c1.4,0.6,2.6,1.7,3.2,3.1l149.1,347.9c0.6,1.4,0.6,3,0.1,4.5c-0.6,1.4-1.7,2.6-3.1,3.2 C1335.8,995.2,1186,1024,1023,1024z" fill="#FFA452"/> <path d="M1594,1485.8c-18,49-40.6,88.9-67.7,119.5c-0.1,0.1-0.2,0.3-0.4,0.4c-3.9,4.4-7.9,8.6-12,12.6 c-1,0.9-1.9,1.9-2.9,2.8c-4.3,4.1-8.7,8-13.2,11.7c-5.4,4.4-11.3,8.7-17.4,12.9c-0.9,0.6-1.8,1.2-2.8,1.8 c-5.6,3.8-11.5,7.4-17.7,11c-0.4,0.2-0.8,0.4-1.1,0.6c-34.8,20.1-78,37.3-129.4,51.5c41.3,6.6,123.4,17.9,198.1,17.9c0,0,0,0,0,0 c74.2,0,123.6-11.5,142.9-33.1C1703.2,1658.4,1653.6,1564.5,1594,1485.8z" fill="#FFA452"/> <path d="M540,1658.4c-6.2-3.6-12.1-7.3-17.7-11c-0.9-0.6-1.9-1.2-2.8-1.8c-6.1-4.2-12-8.5-17.4-12.9 c-4.5-3.7-8.9-7.6-13.2-11.7c-1-0.9-1.9-1.9-2.9-2.8c-4.1-4-8.1-8.2-12-12.6c-0.1-0.1-0.3-0.3-0.4-0.4 c-27.1-30.6-49.7-70.5-67.7-119.5c-59.6,78.7-109.2,172.5-76.4,209.5c19.2,21.7,68.6,33.1,142.9,33.1 c74.4,0,156.7-11.3,198.1-17.9c-51.4-14.1-94.5-31.4-129.3-51.5C540.8,1658.9,540.4,1658.6,540,1658.4z" fill="#FFA452"/> <path d="M467.4,485c0.8-2.2,1.7-4.3,2.5-6.4c2-5,4-10,6.1-14.9c3.2-7.7,6.5-15.1,9.8-22.2c1-2.3,2.1-4.4,3.1-6.6 c3.9-8.3,7.8-16.3,11.8-23.8c1.6-3,4.7-8.9,24.5-15.7c0.7-0.2,1.4-0.5,2.2-0.7c0.6-0.2,1.2-0.4,1.7-0.6c9.4-3,21.9-6,38.6-9.1 c1-0.2,2.1-0.4,3.1-0.6c0.9-0.2,1.7-0.3,2.6-0.5c-102.5-80.4-178.1-122.8-219.1-122.8c-11,0-19.1,3-24.6,9.3 c-40.3,45.4,59.3,220.7,109.2,297.3C447.8,538.3,457.4,510.7,467.4,485z" fill="#FFA452"/> <path d="M1432.4,385c16.6,3,29.1,6.1,38.5,9c0.6,0.2,1.2,0.4,1.8,0.6c0.7,0.2,1.5,0.5,2.2,0.7 c19.8,6.8,23,12.7,24.5,15.7c4,7.5,7.9,15.5,11.8,23.8c1,2.2,2.1,4.4,3.1,6.6c3.3,7.2,6.5,14.5,9.7,22.2c2.1,4.9,4.1,9.9,6.1,15 c0.8,2.1,1.6,4.1,2.4,6.2c10.1,25.7,19.7,53.3,28.7,82.8c49.8-76.6,149.4-251.9,109.2-297.3c-5.6-6.3-13.6-9.3-24.6-9.3 c-41,0-116.6,42.4-219.1,122.8c0.9,0.2,1.7,0.3,2.5,0.5C1430.3,384.6,1431.3,384.8,1432.4,385z" fill="#FFA452"/> </g> <path d="M611,802c0-21.4,1.1-42.6,2.8-63.7L541.6,933c11.9,4.2,41.8,14.3,85.3,25.9C616.5,908.1,611,855.6,611,802z " fill="#54351E"/> <g> <path d="M1417.7,1608.7c-381.6,0-708.3-276.4-788-636.9c-58.4-15.4-94.1-28.5-97.7-29.8c-3-1.1-4.6-4.5-3.4-7.5 l90.5-244.1c16.1-112.3,56-217.7,114.3-310.9c-22.3,1.4-43.6,2.9-63.3,4.5c-34,2.9-60.7,6.1-81.8,9.3c0,0,0,0-0.1,0 c-3.8,0.6-7.3,1.1-10.7,1.7c-0.4,0.1-0.8,0.1-1.2,0.2c-3.4,0.6-6.6,1.1-9.6,1.7c-0.4,0.1-0.8,0.1-1.2,0.2 c-38.3,7.3-49.9,14.2-53.4,17.7c-0.1,0.1-0.2,0.2-0.3,0.3c-0.2,0.2-0.3,0.3-0.4,0.5c-0.2,0.3-0.4,0.6-0.5,0.8 c-3.9,7.4-7.7,15.2-11.5,23.3c-1.2,2.6-2.5,5.3-3.7,8c-2.6,5.8-5.3,11.8-7.8,17.9c-3.3,7.7-6.5,15.6-9.7,23.9 c-0.2,0.6-0.5,1.2-0.7,1.9c-10.7,27.7-21,58.4-30.9,91.9c-0.1,0.3-0.4,0.5-0.5,0.8c-39.9,135-68.3,303.7-76.1,466.4 c-6.2,130.2,1.4,249.1,22,344.1c6,27.6,13.1,53.2,21.2,76.8c0.1,0.2,0.3,0.3,0.4,0.5c20.4,59.1,47.3,105.2,80.1,137.6 c0.9,0.9,1.8,1.7,2.6,2.6c4.3,4.2,8.8,8.1,13.3,11.8c5.4,4.3,11.1,8.5,17.2,12.7c2.8,1.9,5.9,3.7,8.9,5.6 c3.4,2.2,6.8,4.4,10.4,6.5c3.9,2.3,8.2,4.4,12.3,6.6c3,1.6,5.9,3.2,9,4.8c4.7,2.3,9.7,4.6,14.7,6.8c2.9,1.3,5.6,2.6,8.6,3.9 c5.4,2.3,11,4.5,16.6,6.7c2.9,1.1,5.6,2.3,8.6,3.4c6,2.3,12.4,4.4,18.7,6.5c2.7,0.9,5.4,1.9,8.2,2.8c7,2.3,14.2,4.4,21.5,6.5 c2.3,0.7,4.5,1.4,6.8,2c8.5,2.4,17.2,4.6,26.1,6.8c86.9,21.5,191.2,33.5,302.9,33.5c112,0,216.5-12.1,303.5-33.7 c8.6-2.1,17-4.3,25.2-6.6c2.5-0.7,4.9-1.5,7.4-2.2c7.1-2.1,14.2-4.2,21-6.4c2.9-0.9,5.7-1.9,8.5-2.9c6.2-2.1,12.4-4.2,18.4-6.4 c3-1.1,5.8-2.3,8.7-3.4c5.6-2.2,11.2-4.4,16.5-6.7c3-1.3,5.8-2.6,8.7-4c5-2.2,10-4.5,14.7-6.8c3.1-1.6,6-3.2,9.1-4.8 c4.1-2.2,8.4-4.3,12.3-6.6c3.6-2.1,7-4.3,10.4-6.5c2.9-1.9,6.1-3.7,8.9-5.6c6.1-4.1,11.8-8.3,17.2-12.7c4.5-3.7,9-7.7,13.3-11.8 c0.9-0.8,1.8-1.7,2.6-2.6c2.1-2.1,4.2-4.4,6.2-6.6C1481.5,1606.5,1449.8,1608.7,1417.7,1608.7z" fill="#CC7A37"/> <path d="M1530.5,1600.4c-1.4,1.6-2.7,3.4-4.2,5c-0.1,0.1-0.2,0.3-0.4,0.4c-3.9,4.4-7.9,8.6-12,12.6 c-1,0.9-1.9,1.9-2.9,2.8c-4.3,4.1-8.7,8-13.2,11.7c-5.4,4.4-11.3,8.7-17.4,12.9c-0.9,0.6-1.8,1.2-2.8,1.8 c-5.6,3.8-11.5,7.4-17.7,11c-0.4,0.2-0.8,0.4-1.1,0.6c-34.8,20.1-78,37.3-129.4,51.5c41.3,6.6,123.4,17.9,198.1,17.9c0,0,0,0,0,0 c74.2,0,123.6-11.5,142.9-33.1c21-23.7,8.1-70.7-19.5-122.1C1611.9,1585.3,1571.7,1594.4,1530.5,1600.4z" fill="#FFA452"/> <path d="M540,1658.4c-6.2-3.6-12.1-7.3-17.7-11c-0.9-0.6-1.9-1.2-2.8-1.8c-6.1-4.2-12-8.5-17.4-12.9 c-4.5-3.7-8.9-7.6-13.2-11.7c-1-0.9-1.9-1.9-2.9-2.8c-4.1-4-8.1-8.2-12-12.6c-0.1-0.1-0.3-0.3-0.4-0.4 c-27.1-30.6-49.7-70.5-67.7-119.5c-59.6,78.7-109.2,172.5-76.4,209.5c19.2,21.7,68.6,33.1,142.9,33.1 c74.4,0,156.7-11.3,198.1-17.9c-51.4-14.1-94.5-31.4-129.3-51.5C540.8,1658.9,540.4,1658.6,540,1658.4z" fill="#FFA452"/> <path d="M467.4,485c0.8-2.2,1.7-4.3,2.5-6.4c2-5,4-10,6.1-14.9c3.2-7.7,6.5-15.1,9.8-22.2c1-2.3,2.1-4.4,3.1-6.6 c3.9-8.3,7.8-16.3,11.8-23.8c1.6-3,4.7-8.9,24.5-15.7c0.7-0.2,1.4-0.5,2.2-0.7c0.6-0.2,1.2-0.4,1.7-0.6c9.4-3,21.9-6,38.6-9.1 c1-0.2,2.1-0.4,3.1-0.6c0.9-0.2,1.7-0.3,2.6-0.5c-102.5-80.4-178.1-122.8-219.1-122.8c-11,0-19.1,3-24.6,9.3 c-40.3,45.4,59.3,220.7,109.2,297.3C447.8,538.3,457.4,510.7,467.4,485z" fill="#FFA452"/> </g> <path d="M329.7,254.4c0,0-11.1,16.6,15.5,71.3s74,131.5,92.8,143.7c18.8,12.2,36.5,9.9,36.5,9.9l-39.2,106.1 c0,0-50.3-74.6-82.3-137.6s-47-139.2-45.3-156.4C309.2,274.2,329.7,254.4,329.7,254.4z" fill="#CC7A37"/> <path d="M1522.7,479.8c0,0,19.3,8.8,48.6-16.6c29.3-25.4,75.7-113.8,85.6-145.3s12.7-63.5,12.7-63.5 s19.9,4.4,21.6,46.4c1.7,42-39.1,137.6-59,175.7s-71.4,106.6-71.4,106.6L1522.7,479.8z" fill="#CC7A37"/> <path d="M373.9,1509.8c0,0,9.9,44.8,38.7,101.1c28.7,56.4,100,78.5,108.3,90.6c8.3,12.2-16,37.3-16,37.3 s44.8,0.8,108.9-4.7s82.3-21.6,80.7-22.1c-1.7-0.6-51.4-12.2-89-28.2c-37.6-16-72.4-30.9-97.8-54.7c-25.4-23.8-50.8-47-59.1-64.7 c-8.3-17.7-44.8-92.8-44.8-92.8L373.9,1509.8z" fill="#CC7A37"/> <path d="M1628.8,1508.2c0,0-30.4,73.5-63.5,110.5c-33.2,37-90.1,54.7-101.1,71.3s59.1,48.9,59.1,48.9 s-88.4,5.2-140.4-4.7c-51.9-9.9-71.3-19.9-71.3-19.9s109.4-40.9,121-47.5c11.6-6.6,64.1-38,82.9-59.6 c18.8-21.6,31.5-42.1,44.2-65.3c12.7-23.2,33.2-66.3,33.2-66.3L1628.8,1508.2z" fill="#CC7A37"/> <path d="M1637.8,1401c21.2-97.5,29.1-219.2,22.7-352c-7.5-156.9-34.6-325.3-74.5-463.6c13.2-20.4,45.6-72,73.3-127.2 c53.9-107.2,64.6-173.3,33.8-208c-7.9-8.9-22.6-19.5-47.4-19.5c-49.5,0-128.1,42.9-240.1,131.1c-21.2-3-45.8-5.7-73.2-8 c-89.3-7.7-207.4-11.9-332.5-11.9s-243.2,4.2-332.5,11.9c-27.4,2.4-52,5.1-73.2,8c-112-88.2-190.6-131.1-240.1-131.1 c-24.8,0-39.5,10.6-47.4,19.5c-30.8,34.7-20.1,100.8,33.8,208c27.8,55.3,60.2,106.8,73.3,127.2c-39.9,138.3-66.9,306.7-74.5,463.6 c-6.4,132.8,1.5,254.5,22.7,352c5.2,24,11.3,46.9,18.2,68.2c-62.7,83-123.5,190.1-73.6,246.4c25.9,29.2,80.1,43.4,165.7,43.4 c56,0,115.7-6.2,155.9-11.5c22.7-3,41.7-5.9,53.7-7.9c6.6-1.1,15.8-2.7,16-2.7c89.3,21.2,193.6,32.5,302,32.5 c108.3,0,212.7-11.2,302-32.5c24.2,4.3,130.3,22,225.5,22c85.6,0,139.8-14.2,165.7-43.4c49.9-56.2-10.8-163.4-73.6-246.4 C1626.5,1447.8,1632.6,1424.9,1637.8,1401z M1645.8,261.1c11,0,19.1,3,24.6,9.3c40.3,45.4-59.3,220.7-109.2,297.3 c-9-29.5-18.7-57.1-28.7-82.8c-0.8-2.1-1.6-4.2-2.4-6.2c-2-5.1-4-10.1-6.1-15c-3.2-7.7-6.5-15.1-9.7-22.2c-1-2.3-2.1-4.4-3.1-6.6 c-3.9-8.3-7.8-16.3-11.8-23.8c-1.6-3-4.7-8.9-24.5-15.7c-0.7-0.2-1.4-0.5-2.2-0.7c-0.6-0.2-1.2-0.4-1.8-0.6c-9.4-3-21.9-6-38.5-9 c-1.1-0.2-2.1-0.4-3.2-0.6c-0.9-0.2-1.6-0.3-2.5-0.5C1529.2,303.6,1604.8,261.1,1645.8,261.1z M329.6,270.4 c5.6-6.3,13.6-9.3,24.6-9.3c41,0,116.6,42.4,219.1,122.8c-0.9,0.2-1.7,0.3-2.6,0.5c-1.1,0.2-2.1,0.4-3.1,0.6 c-16.7,3-29.2,6.1-38.6,9.1c-0.6,0.2-1.2,0.4-1.7,0.6c-0.7,0.2-1.5,0.5-2.2,0.7c-19.8,6.8-23,12.7-24.5,15.7 c-4,7.5-7.9,15.5-11.8,23.8c-1,2.2-2.1,4.4-3.1,6.6c-3.3,7.2-6.5,14.6-9.8,22.2c-2,4.8-4.1,9.9-6.1,14.9c-0.8,2.1-1.7,4.3-2.5,6.4 c-10,25.6-19.7,53.2-28.7,82.7C388.9,491.2,289.3,315.8,329.6,270.4z M472.5,1728.4c-74.2,0-123.7-11.5-142.9-33.1 c-32.8-37,16.8-130.8,76.4-209.5c18,49,40.6,88.9,67.7,119.5c0.1,0.1,0.3,0.3,0.4,0.4c3.9,4.4,7.9,8.6,12,12.6 c1,0.9,1.9,1.9,2.9,2.8c4.3,4.1,8.7,8,13.2,11.7c5.4,4.4,11.3,8.7,17.4,12.9c0.9,0.6,1.9,1.2,2.8,1.8c5.6,3.8,11.5,7.4,17.7,11 c0.4,0.2,0.8,0.4,1.2,0.7c34.8,20.1,78,37.3,129.3,51.5C629.2,1717.1,546.9,1728.4,472.5,1728.4z M1303.6,1705.2 c-87,21.6-191.6,33.7-303.5,33.7c-111.7,0-216-12-302.9-33.5c-8.9-2.2-17.6-4.4-26.1-6.8c-2.3-0.7-4.5-1.3-6.8-2 c-7.3-2.1-14.6-4.3-21.5-6.5c-2.8-0.9-5.5-1.9-8.2-2.8c-6.3-2.1-12.6-4.3-18.7-6.5c-2.9-1.1-5.7-2.3-8.6-3.4 c-5.6-2.2-11.3-4.4-16.6-6.7c-2.9-1.3-5.7-2.6-8.6-3.9c-5-2.3-10-4.5-14.7-6.8c-3.1-1.6-6-3.2-9-4.8c-4.2-2.2-8.4-4.4-12.3-6.6 c-3.6-2.1-7-4.3-10.4-6.5c-3-1.9-6.1-3.7-8.9-5.6c-6.1-4.1-11.8-8.3-17.2-12.7c-4.5-3.7-9-7.7-13.3-11.8c-0.9-0.8-1.8-1.7-2.6-2.6 c-32.7-32.4-59.7-78.5-80.1-137.6c-0.1-0.2-0.3-0.3-0.4-0.5c-8.1-23.5-15.2-49.1-21.2-76.8c-20.7-94.9-28.3-213.9-22-344.1 C377.7,887.7,406.1,719,446,584c0.1-0.3,0.4-0.5,0.5-0.8c9.9-33.5,20.2-64.2,30.9-91.9c0.2-0.6,0.5-1.2,0.7-1.9 c3.2-8.3,6.5-16.2,9.7-23.9c2.6-6.1,5.2-12.1,7.8-17.9c1.2-2.7,2.5-5.3,3.7-8c3.8-8,7.6-15.9,11.5-23.3c0.1-0.2,0.3-0.5,0.5-0.8 c0.1-0.2,0.3-0.3,0.4-0.5c0.1-0.1,0.2-0.2,0.3-0.3c3.5-3.5,15.1-10.4,53.4-17.7c0.4-0.1,0.8-0.1,1.2-0.2c3-0.6,6.2-1.1,9.6-1.7 c0.4-0.1,0.8-0.1,1.2-0.2c3.4-0.6,6.9-1.1,10.7-1.7c0,0,0,0,0.1,0c21.1-3.2,47.8-6.4,81.8-9.3c88.5-7.6,205.6-11.8,329.9-11.8 c124.3,0,241.4,4.2,329.9,11.8c34,2.9,60.7,6.1,81.8,9.3c0,0,0,0,0.1,0c3.8,0.6,7.3,1.1,10.7,1.7c0.4,0.1,0.8,0.1,1.2,0.2 c3.4,0.6,6.6,1.1,9.6,1.7c0.4,0.1,0.8,0.1,1.2,0.2c38.3,7.3,49.9,14.2,53.4,17.7c0.1,0.1,0.2,0.2,0.3,0.3c0.2,0.2,0.3,0.3,0.4,0.5 c0.2,0.3,0.4,0.6,0.5,0.8c3.9,7.4,7.7,15.3,11.5,23.3c1.2,2.6,2.5,5.2,3.7,7.9c2.7,5.8,5.3,11.9,7.9,18c3.3,7.7,6.5,15.6,9.7,23.9 c0.2,0.6,0.5,1.2,0.7,1.9c10.7,27.7,21,58.4,30.9,91.9c0.1,0.3,0.4,0.5,0.5,0.8c39.9,135,68.3,303.7,76.1,466.4 c6.2,130.2-1.4,249.1-22,344.1c-6,27.6-13.1,53.2-21.2,76.8c-0.1,0.2-0.3,0.3-0.3,0.5c-20.4,59.1-47.3,105.2-80.1,137.6 c-0.9,0.9-1.7,1.7-2.6,2.6c-4.3,4.2-8.8,8.1-13.3,11.8c-5.4,4.3-11.1,8.5-17.2,12.7c-2.8,1.9-5.9,3.7-8.9,5.6 c-3.4,2.2-6.8,4.4-10.4,6.5c-3.9,2.3-8.1,4.4-12.3,6.6c-3,1.6-5.9,3.2-9.1,4.8c-4.7,2.3-9.7,4.6-14.7,6.8c-2.9,1.3-5.7,2.7-8.7,4 c-5.3,2.3-10.9,4.5-16.5,6.7c-2.9,1.1-5.8,2.3-8.7,3.4c-5.9,2.2-12.2,4.3-18.4,6.4c-2.9,1-5.6,2-8.5,2.9c-6.8,2.2-13.9,4.3-21,6.4 c-2.5,0.7-4.9,1.5-7.4,2.2C1320.6,1700.9,1312.1,1703.1,1303.6,1705.2z M1670.4,1695.3c-19.2,21.7-68.6,33.1-142.9,33.1 c0,0,0,0,0,0c-74.7,0-156.8-11.3-198.1-17.9c51.4-14.1,94.6-31.4,129.4-51.5c0.4-0.2,0.8-0.4,1.1-0.6c6.2-3.6,12.1-7.3,17.7-11 c0.9-0.6,1.9-1.2,2.8-1.8c6.1-4.2,12-8.5,17.4-12.9c4.5-3.7,8.9-7.6,13.2-11.7c1-0.9,1.9-1.9,2.9-2.8c4.1-4,8.1-8.2,12-12.6 c0.1-0.1,0.2-0.3,0.4-0.4c27.1-30.6,49.7-70.5,67.7-119.5C1653.6,1564.5,1703.2,1658.4,1670.4,1695.3z"/> <path d="M1471.3,935.3c0.6-1.4,0.6-3-0.1-4.5l-149.1-347.9c-0.6-1.4-1.8-2.5-3.2-3.1c-1.4-0.6-3-0.6-4.5,0.1 c-84.2,36.1-182.2,54.4-291.3,54.4c-193.2,0-353.9-57.6-355.5-58.1c-3-1.1-6.4,0.4-7.5,3.5L528.6,934.5c-1.1,3,0.4,6.4,3.4,7.5 c9,3.3,223.3,82,491,82c163,0,312.8-28.8,445.2-85.5C1469.6,937.9,1470.8,936.7,1471.3,935.3z M1023,1012.3 c-245.4,0-445.4-66.6-481.4-79.3l127.6-344c30,10.1,178.9,57,354,57c108.3,0,206-17.9,290.5-53.1l144.5,337.2 C1328.6,984.6,1182.2,1012.3,1023,1012.3z"/> <path d="M996.1,739.9L863,724.6c-1.6-0.2-3,1-3.2,2.6l-20.7,179.4c-0.1,0.8,0.1,1.5,0.6,2.1c0.5,0.6,1.2,1,2,1.1l136.5,15.7 c0.1,0,0.2,0,0.3,0c0.7,0,1.3-0.2,1.8-0.6c0.6-0.5,1-1.2,1.1-2l3.5-30.2c0.2-1.6-1-3-2.6-3.2L885,878.3l5-43l87.2,10 c1.6,0.2,3-1,3.2-2.6l3.5-30.2c0.1-0.8-0.1-1.5-0.6-2.1c-0.5-0.6-1.2-1-2-1.1l-87.2-10l3.9-34l93.9,10.8c0.8,0.1,1.5-0.1,2.1-0.6 c0.6-0.5,1-1.2,1.1-2l3.5-30.4C998.9,741.5,997.7,740.1,996.1,739.9z M989.7,769.9l-93.9-10.8c-0.8-0.1-1.5,0.1-2.1,0.6 c-0.6,0.5-1,1.2-1.1,2l-4.6,39.8c-0.2,1.6,1,3,2.6,3.2l87.2,10l-2.8,24.4l-87.2-10c-0.8-0.1-1.5,0.1-2.1,0.6c-0.6,0.5-1,1.2-1.1,2 l-5.6,48.8c-0.2,1.6,1,3,2.6,3.2l97.3,11.2l-2.8,24.4l-130.7-15l20-173.6l127.3,14.6L989.7,769.9z"/> <path d="M1281.4,752.3c-5.5-3.2-11.9-4.8-19-4.8l-0.9,0c-5.5,0-15.3,1.8-30.2,5.3l-15.9,3.8c-0.8,0.2-1.4,0.6-1.8,1.3 c-0.4,0.7-0.5,1.5-0.4,2.2l27.5,116.4c0.3,1.3,1.5,2.3,2.8,2.3c0.2,0,0.4,0,0.7-0.1l26.5-6.2c10.3-2.4,17.4-4.7,21.7-7 c5.8-3,10.4-6.9,13.7-11.6c3.3-4.8,5.2-11.7,5.8-20.6c0.6-8.7-0.8-20.1-4.1-33.9c-3.3-14-7-24.3-11.3-31.3 C1292.1,760.9,1287.1,755.6,1281.4,752.3z M1306,832.8c-0.5,7.9-2.1,13.8-4.8,17.7c-2.7,3.9-6.6,7.2-11.6,9.8 c-3.9,2-10.7,4.2-20.4,6.5l-23.7,5.6l-26.1-110.8l13.1-3.1c14.2-3.3,23.9-5.1,28.9-5.1l0.8,0c6.1,0,11.5,1.3,16,4 c4.8,2.8,9.2,7.4,13.1,13.7c3.9,6.4,7.5,16.4,10.6,29.6C1305.3,813.9,1306.6,824.7,1306,832.8z"/> <path d="M1272.8,715.3c-8.4-0.4-20.2,1.1-35.1,4.6l-64.9,15.3c-1.6,0.4-2.5,1.9-2.2,3.5l41.5,175.8c0.3,1.3,1.5,2.2,2.8,2.2 c0.2,0,0.4,0,0.7-0.1l66.8-15.7c13.4-3.1,23.9-7,31.4-11.5c10-6,17.6-13,22.6-20.8c6.5-10.2,10.5-22.5,12-36.8 c1.2-11.6,0-24.9-3.5-39.7c-3.9-16.7-9.3-30.5-15.9-41.1c-6.7-10.6-14.9-19.2-24.4-25.4C1295,719.4,1284.3,715.9,1272.8,715.3z M1324,754.2c6.3,10,11.4,23.2,15.2,39.3c3.3,14.1,4.5,26.8,3.4,37.7c-1.3,13.3-5.1,24.8-11.1,34.2c-4.5,7-11.4,13.4-20.7,19 c-6.9,4.2-16.9,7.8-29.7,10.8l-64,15.1L1177,740.2l62-14.6c14.3-3.4,25.6-4.9,33.4-4.5c10.5,0.6,20.2,3.8,28.9,9.5 C1310.2,736.4,1317.8,744.3,1324,754.2z"/> <path d="M1163.9,887.4c-0.6-0.5-1.3-0.8-2.1-0.8l-97.9,3.3l-1.5-43.3l87.7-3c1.6-0.1,2.9-1.4,2.8-3l-1-30.4c0-0.8-0.4-1.5-0.9-2 c-0.6-0.5-1.3-0.8-2.1-0.8l-87.7,3l-1.2-34.2l94.5-3.2c0.8,0,1.5-0.4,2-0.9c0.5-0.6,0.8-1.3,0.8-2.1l-1-30.5 c-0.1-1.6-1.4-2.9-3-2.8l-133.9,4.5c-0.8,0-1.5,0.4-2,0.9c-0.5,0.6-0.8,1.3-0.8,2.1l6.1,180.5c0,0.8,0.4,1.5,0.9,2 c0.5,0.5,1.3,0.8,2,0.8c0,0,0.1,0,0.1,0l137.3-4.7c1.6-0.1,2.9-1.4,2.8-3l-1-30.4C1164.8,888.6,1164.4,887.9,1163.9,887.4z M1028.4,921.5l-5.9-174.7l128-4.3l0.8,24.7l-94.5,3.2c-0.8,0-1.5,0.4-2,0.9c-0.5,0.6-0.8,1.3-0.8,2.1l1.4,40c0,0.8,0.4,1.5,0.9,2 c0.6,0.5,1.3,0.8,2.1,0.8l87.7-3l0.8,24.6l-87.7,3c-1.6,0.1-2.9,1.4-2.8,3l1.7,49.1c0.1,1.6,1.4,2.9,3,2.8l97.9-3.3l0.8,24.6 L1028.4,921.5z"/> <path d="M770.9,700.2c-13.8-3.4-26.3-4.3-37.2-2.6c-11.1,1.8-20.4,6.2-27.8,13c-7.4,6.9-12.3,15.1-14.7,24.6 c-3.7,14.6-1,28.7,7.8,41.6c6.3,9.2,18.3,18.5,36.7,28.2c13.7,7.3,22.5,12.2,26.2,14.6c5.1,3.4,8.4,6.6,9.8,9.6 c1.4,2.9,1.7,6,0.8,9.5c-1.4,5.6-5.1,9.8-11.3,12.8c-6.3,3.1-15,3.3-25.6,0.6c-10-2.5-17.4-7-21.9-13.4c-4.6-6.4-6.5-15.4-5.7-26.7 c0.1-1.5-1-2.9-2.5-3.1l-35.3-5.2c-0.8-0.1-1.6,0.1-2.2,0.6c-0.6,0.5-1,1.2-1.1,2c-2.7,20.8,0.9,38.4,10.6,52.1 c9.7,13.7,26.1,23.6,48.9,29.3c10.7,2.7,20.5,4,29.3,4c4,0,7.9-0.3,11.5-0.8c11.8-1.8,22-6.7,30.1-14.4c8.1-7.7,13.6-17,16.2-27.5 c2.9-11.6,2.9-22.1-0.1-31.3c-2.9-9.2-8.2-17.2-15.8-23.9c-7.3-6.5-19.3-14.1-35.7-22.6c-19.6-10.1-26.3-15.9-28.6-18.9 c-2.3-3.1-3-6.2-2.1-9.5c0.9-3.6,3.1-6.1,6.6-7.5c6.3-2.5,14.3-2.6,23.9-0.2c9.3,2.3,15.8,5.8,19.3,10.5c3.5,4.6,5,11.3,4.3,19.9 c-0.1,1.5,0.9,2.8,2.3,3.1l35.8,7.3c1.6,0.3,3.1-0.7,3.4-2.3c3.6-17,0.8-32.2-8.4-45.3C809.5,715.2,793.5,705.8,770.9,700.2z M821.8,769.4l-30.4-6.2c0.3-8.9-1.6-16-5.6-21.3c-4.4-5.7-12-9.9-22.5-12.6c-10.8-2.7-20.1-2.6-27.5,0.4c-5.3,2.1-8.7,6-10.1,11.5 c-1.2,5-0.2,9.8,3.1,14.4c3.8,5.3,13.8,12.1,30.6,20.7c15.9,8.2,27.5,15.5,34.5,21.7c6.7,6,11.5,13.2,14.1,21.4 c2.6,8.1,2.6,17.6,0,28.1c-2.3,9.4-7.2,17.7-14.6,24.7c-7.3,6.9-16.4,11.3-27,12.9c-10.8,1.7-23.8,0.6-38.6-3.1 c-21.4-5.3-36.7-14.4-45.5-27c-8.4-11.9-11.7-27-9.9-45.1l29.7,4.4c-0.4,11.5,2,20.8,6.9,27.8c5.4,7.5,13.9,12.8,25.3,15.7 c12,3,22,2.7,29.5-1c7.8-3.8,12.6-9.4,14.4-16.7c1.2-4.8,0.8-9.3-1.2-13.5c-2-4-5.8-7.9-11.9-11.9c-3.9-2.5-12.8-7.5-26.6-14.8 c-17.3-9.2-28.9-18-34.6-26.4c-7.9-11.7-10.2-23.8-6.9-37c2.1-8.3,6.5-15.6,13-21.7c6.5-6.1,14.9-10,24.8-11.6 c10.1-1.6,21.8-0.8,34.8,2.5c21.2,5.3,36.1,13.9,44.4,25.7C821.5,742.5,824.2,755.2,821.8,769.4z"/> </g> </g>
</svg>